<svg xmlns="http://www.w3.org/2000/svg" width="48" height="48" viewBox="0 0 48 48">
  <defs>
    <linearGradient id="bg" x1="0%" y1="0%" x2="100%" y2="100%">
      <stop offset="0%" style="stop-color:#1a1a2e"/>
      <stop offset="100%" style="stop-color:#16213e"/>
    </linearGradient>
    <linearGradient id="accent" x1="0%" y1="0%" x2="100%" y2="0%">
      <stop offset="0%" style="stop-color:#0f4c75"/>
      <stop offset="100%" style="stop-color:#3282b8"/>
    </linearGradient>
  </defs>
  <rect width="48" height="48" rx="10" fill="url(#bg)"/>
  <rect x="6" y="6" width="36" height="36" rx="7" fill="url(#accent)" opacity="0.3"/>
  <path d="M14 12v6c0 1.7-1.3 3-3 3s-3-1.3-3-3v-6c0-1.7 1.3-3 3-3" stroke="#bbe1fa" stroke-width="3" fill="none" stroke-linecap="round"/>
  <path d="M34 12v6c0 1.7 1.3 3 3 3s3-1.3 3-3v-6c0-1.7-1.3-3-3-3" stroke="#bbe1fa" stroke-width="3" fill="none" stroke-linecap="round"/>
  <circle cx="23" cy="15" r="2" fill="#bbe1fa"/>
  <circle cx="23" cy="21" r="2" fill="#bbe1fa"/>
  <path d="M15 30h18" stroke="#bbe1fa" stroke-width="3" stroke-linecap="round"/>
</svg>