<svg xmlns="http://www.w3.org/2000/svg" width="128" height="128" viewBox="0 0 128 128">
  <defs>
    <linearGradient id="bg" x1="0%" y1="0%" x2="100%" y2="100%">
      <stop offset="0%" style="stop-color:#1a1a2e"/>
      <stop offset="100%" style="stop-color:#16213e"/>
    </linearGradient>
    <linearGradient id="accent" x1="0%" y1="0%" x2="100%" y2="0%">
      <stop offset="0%" style="stop-color:#0f4c75"/>
      <stop offset="100%" style="stop-color:#3282b8"/>
    </linearGradient>
  </defs>
  <rect width="128" height="128" rx="24" fill="url(#bg)"/>
  <rect x="16" y="16" width="96" height="96" rx="18" fill="url(#accent)" opacity="0.3"/>
  <!-- Left brace -->
  <path d="M36 32v16c0 4.4-3.6 8-8 8s-8-3.6-8-8V32c0-4.4 3.6-8 8-8" stroke="#bbe1fa" stroke-width="7" fill="none" stroke-linecap="round"/>
  <!-- Right brace -->
  <path d="M92 32v16c0 4.4 3.6 8 8 8s8-3.6 8-8V32c0-4.4-3.6-8-8-8" stroke="#bbe1fa" stroke-width="7" fill="none" stroke-linecap="round"/>
  <!-- Colon -->
  <circle cx="60" cy="38" r="5" fill="#bbe1fa"/>
  <circle cx="60" cy="52" r="5" fill="#bbe1fa"/>
  <!-- Line -->
  <path d="M40 76h48" stroke="#bbe1fa" stroke-width="7" stroke-linecap="round"/>
</svg>