<svg xmlns="http://www.w3.org/2000/svg" width="48" height="48" viewBox="0 0 128 128">
  <defs>
    <linearGradient id="brace48" x1="0%" y1="0%" x2="100%" y2="100%">
      <stop offset="0%" stop-color="#60a5fa"/>
      <stop offset="55%" stop-color="#3b82f6"/>
      <stop offset="100%" stop-color="#8b5cf6"/>
    </linearGradient>
    <linearGradient id="zen48" x1="0%" y1="0%" x2="100%" y2="100%">
      <stop offset="0%" stop-color="#14b8a6"/>
      <stop offset="100%" stop-color="#3b82f6"/>
    </linearGradient>
    <filter id="glow48" x="-40%" y="-40%" width="180%" height="180%">
      <feGaussianBlur stdDeviation="2.2" result="blur"/>
      <feMerge>
        <feMergeNode in="blur"/>
        <feMergeNode in="SourceGraphic"/>
      </feMerge>
    </filter>
  </defs>
  <rect width="128" height="128" rx="28" fill="#0b1120"/>
  <circle cx="64" cy="64" r="31" fill="none" stroke="url(#zen48)" stroke-width="5" stroke-linecap="round" filter="url(#glow48)"/>
  <path d="M39 42c-5 0-8 4-8 10v8c0 4-2 6-6 8v2c4 2 6 4 6 8v8c0 6 3 10 8 10" fill="none" stroke="url(#brace48)" stroke-width="6" stroke-linecap="round" stroke-linejoin="round" filter="url(#glow48)"/>
  <path d="M89 42c5 0 8 4 8 10v8c0 4 2 6 6 8v2c-4 2-6 4-6 8v8c0 6-3 10-8 10" fill="none" stroke="url(#brace48)" stroke-width="6" stroke-linecap="round" stroke-linejoin="round" filter="url(#glow48)"/>
  <g fill="#60a5fa" filter="url(#glow48)">
    <circle cx="52" cy="56" r="4"/>
    <circle cx="64" cy="48" r="4"/>
    <circle cx="76" cy="56" r="4"/>
    <circle cx="56" cy="76" r="4"/>
    <circle cx="72" cy="76" r="4"/>
  </g>
  <g stroke="#3b82f6" stroke-width="1.8" opacity="0.5">
    <line x1="52" y1="56" x2="64" y2="48"/>
    <line x1="64" y1="48" x2="76" y2="56"/>
    <line x1="52" y1="56" x2="56" y2="76"/>
    <line x1="76" y1="56" x2="72" y2="76"/>
    <line x1="56" y1="76" x2="72" y2="76"/>
  </g>
</svg>
